<svg xmlns="http://www.w3.org/2000/svg" width="15" height="17.143" viewBox="0 0 15 17.143"><path d="M14.529,2.208,12.792.471A1.607,1.607,0,0,0,11.656,0H5.893A1.607,1.607,0,0,0,4.286,1.607V3.214H1.607A1.607,1.607,0,0,0,0,4.821V15.536a1.607,1.607,0,0,0,1.607,1.607h7.5a1.607,1.607,0,0,0,1.607-1.607V13.929h2.679A1.607,1.607,0,0,0,15,12.321V3.344a1.607,1.607,0,0,0-.471-1.136Zm-2.744-1.12a.532.532,0,0,1,.249.14l1.737,1.737a.532.532,0,0,1,.14.249H11.786ZM9.643,15.536a.536.536,0,0,1-.536.536h-7.5a.536.536,0,0,1-.536-.536V4.821a.536.536,0,0,1,.536-.536H4.286v8.036a1.607,1.607,0,0,0,1.607,1.607h3.75Zm4.286-3.214a.536.536,0,0,1-.536.536h-7.5a.536.536,0,0,1-.536-.536V1.607a.536.536,0,0,1,.536-.536h4.821V3.482a.806.806,0,0,0,.8.8h2.411Z" fill="#fff"/></svg>