<svg xmlns="http://www.w3.org/2000/svg" width="15" height="17.5" viewBox="0 0 15 17.5"><path d="M13.613,41.063l-5.781,5.8a.469.469,0,0,1-.664,0l-5.781-5.8a.469.469,0,0,1,0-.664l.277-.277a.469.469,0,0,1,.664,0l4.508,4.531V32.469A.47.47,0,0,1,7.3,32H7.7a.47.47,0,0,1,.469.469V44.652l4.508-4.527a.469.469,0,0,1,.664,0l.277.277A.464.464,0,0,1,13.613,41.063ZM15,49.031v-.312a.47.47,0,0,0-.469-.469H.469A.47.47,0,0,0,0,48.719v.313a.47.47,0,0,0,.469.469H14.531A.47.47,0,0,0,15,49.031Z" transform="translate(0 -32)" fill="#fff"/></svg>