<svg xmlns="http://www.w3.org/2000/svg" width="24" height="24" viewBox="0 0 24 24"><path d="M12,24A12,12,0,0,1,3.515,3.515,12,12,0,1,1,20.485,20.485,11.922,11.922,0,0,1,12,24ZM4.359,6.462a.9.9,0,0,0-.665.238.912.912,0,0,0-.238.581V16.65a1.423,1.423,0,0,0,.77,1.374,1.951,1.951,0,0,0,.806.2h9.461a1.909,1.909,0,0,0,1.455-.538,2.086,2.086,0,0,0,.491-1.407l0-1.234h.008c.055,0,.184.01.37.01a6.886,6.886,0,0,0,2.994-.647,3.906,3.906,0,0,0,2.194-3.578,3.942,3.942,0,0,0-2.067-3.8,5.318,5.318,0,0,0-2.287-.576H4.359Zm5.376,9.413h0A13.773,13.773,0,0,1,6.109,12.25a2.177,2.177,0,0,1-.066-2.192,1.743,1.743,0,0,1,1.57-.982l.087,0c1.7.04,1.979,1.127,2.024,1.459a1.3,1.3,0,0,1,.351-.941A2.2,2.2,0,0,1,11.7,9.077h.064a1.842,1.842,0,0,1,1.559.837,2.774,2.774,0,0,1,.035,2.335c-.746,1.46-3.6,3.6-3.625,3.625Zm6.891-3.089c-.042,0-.126,0-.215,0l0-4.079h.008c.109-.008.222-.013.338-.013a4.254,4.254,0,0,1,1.695.322,1.74,1.74,0,0,1,1.084,1.69C19.531,12.636,17.307,12.786,16.626,12.786Z" transform="translate(0 0)" fill="#fff"/></svg>