<svg xmlns="http://www.w3.org/2000/svg" width="17" height="15.111" viewBox="0 0 17 15.111"><path d="M17,.708V4.486a.709.709,0,0,1-1.209.5L14.737,3.933,7.55,11.12a.708.708,0,0,1-1,0l-.668-.668a.708.708,0,0,1,0-1l7.187-7.187L12.014,1.209A.709.709,0,0,1,12.515,0h3.777A.708.708,0,0,1,17,.708ZM12.013,7.992l-.472.472a.708.708,0,0,0-.207.5v4.257H1.889V3.778H9.681a.708.708,0,0,0,.5-.207l.472-.472a.708.708,0,0,0-.5-1.209H1.417A1.417,1.417,0,0,0,0,3.306V13.694a1.417,1.417,0,0,0,1.417,1.417H11.806a1.417,1.417,0,0,0,1.417-1.417v-5.2A.708.708,0,0,0,12.013,7.992Z" fill="#fff"/></svg>