<svg xmlns="http://www.w3.org/2000/svg" width="15.98" height="13.983" viewBox="0 0 15.98 13.983"><path d="M.147,34.643l2.5-2.5a.5.5,0,0,1,.706,0l2.5,2.5a.5.5,0,0,1-.353.853H4v9.988a.5.5,0,0,1-.5.5h-1a.5.5,0,0,1-.5-.5V35.5H.5A.5.5,0,0,1,.147,34.643ZM7.491,34h7.99a.5.5,0,0,0,.5-.5v-1a.5.5,0,0,0-.5-.5H7.491a.5.5,0,0,0-.5.5v1A.5.5,0,0,0,7.491,34Zm-.5,3.5v-1a.5.5,0,0,1,.5-.5h5.993a.5.5,0,0,1,.5.5v1a.5.5,0,0,1-.5.5H7.491A.5.5,0,0,1,6.991,37.493Zm0,7.99v-1a.5.5,0,0,1,.5-.5h2a.5.5,0,0,1,.5.5v1a.5.5,0,0,1-.5.5h-2A.5.5,0,0,1,6.991,45.483Zm0-4v-1a.5.5,0,0,1,.5-.5h4a.5.5,0,0,1,.5.5v1a.5.5,0,0,1-.5.5h-4A.5.5,0,0,1,6.991,41.488Z" transform="translate(0 -32)" fill="#64b0c4"/></svg>