<svg xmlns="http://www.w3.org/2000/svg" width="15.977" height="13.98" viewBox="0 0 15.977 13.98"><path d="M5.845,43.337l-2.5,2.5a.5.5,0,0,1-.706,0l-2.5-2.5A.5.5,0,0,1,.5,42.485H2V32.5a.5.5,0,0,1,.5-.5h1a.5.5,0,0,1,.5.5v9.986h1.5A.5.5,0,0,1,5.845,43.337ZM7.489,34h7.989a.5.5,0,0,0,.5-.5v-1a.5.5,0,0,0-.5-.5H7.489a.5.5,0,0,0-.5.5v1A.5.5,0,0,0,7.489,34Zm-.5,3.495v-1a.5.5,0,0,1,.5-.5h5.991a.5.5,0,0,1,.5.5v1a.5.5,0,0,1-.5.5H7.489A.5.5,0,0,1,6.99,37.492Zm0,7.989v-1a.5.5,0,0,1,.5-.5h2a.5.5,0,0,1,.5.5v1a.5.5,0,0,1-.5.5h-2A.5.5,0,0,1,6.99,45.481Zm0-3.994v-1a.5.5,0,0,1,.5-.5h3.994a.5.5,0,0,1,.5.5v1a.5.5,0,0,1-.5.5H7.489A.5.5,0,0,1,6.99,41.486Z" transform="translate(0 -32)" fill="#64b0c4"/></svg>