<svg xmlns="http://www.w3.org/2000/svg" width="25" height="24.999" viewBox="0 0 25 24.999"><g transform="translate(-2388 -2608) rotate(90)" fill="#fff" stroke-linecap="round"><path d="M2620.5-2388a12.419,12.419,0,0,1-8.839-3.661A12.418,12.418,0,0,1,2608-2400.5a12.416,12.416,0,0,1,3.661-8.839A12.416,12.416,0,0,1,2620.5-2413v1.851a10.661,10.661,0,0,0-10.649,10.649,10.66,10.66,0,0,0,10.648,10.648,10.66,10.66,0,0,0,10.649-10.648H2633a12.422,12.422,0,0,1-3.66,8.839A12.422,12.422,0,0,1,2620.5-2388Z" stroke="none"/><path d="M 2620.500244140625 -2387.999755859375 C 2617.161376953125 -2387.999755859375 2614.0224609375 -2389.300048828125 2611.661376953125 -2391.660888671875 C 2609.300537109375 -2394.021728515625 2608.000244140625 -2397.16064453125 2608.000244140625 -2400.499755859375 C 2608.000244140625 -2403.83984375 2609.300537109375 -2406.978759765625 2611.661376953125 -2409.3388671875 C 2614.021484375 -2411.69970703125 2617.160400390625 -2413 2620.500244140625 -2413 L 2620.500244140625 -2411.148681640625 C 2614.627197265625 -2411.147705078125 2609.8515625 -2406.37109375 2609.8515625 -2400.499755859375 C 2609.8515625 -2394.628662109375 2614.628173828125 -2389.85205078125 2620.49951171875 -2389.85205078125 C 2626.37109375 -2389.85205078125 2631.148193359375 -2394.628662109375 2631.148193359375 -2400.499755859375 L 2632.99951171875 -2400.499755859375 C 2632.99951171875 -2397.160888671875 2631.69921875 -2394.022216796875 2629.33935546875 -2391.660888671875 C 2626.9775390625 -2389.300048828125 2623.838623046875 -2387.999755859375 2620.500244140625 -2387.999755859375 Z" stroke="none" fill="#fff"/></g></svg>
