<svg xmlns="http://www.w3.org/2000/svg" width="294.181" height="89.103" viewBox="0 0 294.181 89.103"><g transform="translate(-810.19 -2181.172)"><g transform="translate(1032 2246.104)"><g transform="translate(0 0)"><g transform="translate(0)"><path d="M225.423,116.258c-2.294.966,1.039,5.021,1.552,5.846h2.964C229.91,119.894,227.752,115.278,225.423,116.258ZM234.6,122.1h.51v-6.521h-2.011A12.948,12.948,0,0,1,234.6,122.1ZM218.015,104v14.377c0,.956,0,4.918,0,4.918a6.786,6.786,0,0,0,.41,1.878c.431,1.131,1.663,3.316,3.352,2.96,1.593-.336,1.309-2.15.723-3.343-1.251-2.547-4.555-5.573-3.016-9.755a6.815,6.815,0,0,1,3.546-4.019c1.267-.53,3.2-.384,4.974-.384h8.59V104Z" transform="translate(-218.01 -104)" fill="#fff"/></g></g><g transform="translate(22.433 4.583)"><path d="M911.771,267.6h2.671v1.634h-2.671v2.387H910V264.69h4.823v1.663h-3.053V267.6Z" transform="translate(-909.666 -264.69)" fill="#fff"/><path d="M1097.2,267.409h2.808v1.517H1097.2v1.037h3.053v1.653h-4.823V264.69h4.823v1.644H1097.2Z" transform="translate(-1089.187 -264.69)" fill="#fff"/><path d="M1286.243,271.617h-1.753V264.69h1.753Z" transform="translate(-1272.222 -264.69)" fill="#fff"/><path d="M1382.461,264.69h1.663l1.673,2.955.587,1.389.049-.01c-.01,0-.186-1.193-.2-1.193V264.69h1.741v6.927h-1.771l-1.565-2.73-.605-1.389-.049.01.225,1.34v2.769h-1.753V264.69Z" transform="translate(-1367.07 -264.69)" fill="#fff"/><path d="M1588.562,264.69h1.81l-2,6.927h-1.625l-.616-1.917-.244-1.585h-.03l-.264,1.575-.548,1.927h-1.625l-2-6.927h1.82l.822,3.317.177,1.467h.049l.167-1.458.772-2.425h1.331l.714,2.434.225,1.448h.03l.2-1.448Z" transform="translate(-1559.689 -264.69)" fill="#fff"/><path d="M1856.13,271.627h-1.88l-.45-1.389h-1.848l-.431,1.389h-1.88l2.417-6.927h1.594Zm-2.749-2.945-.478-2.025h-.049l-.51,2.025Z" transform="translate(-1819.362 -264.7)" fill="#fff"/><path d="M2078.374,269.416h-.313v2.2h-1.771V264.69h2.769c1.428,0,2.534.656,2.573,2.28a2.085,2.085,0,0,1-1.36,2.27l1.888,2.377h-2.182Zm.714-1.507a.793.793,0,1,0,0-1.585h-1.028v1.585Z" transform="translate(-2038.789 -264.69)" fill="#fff"/><path d="M2282.2,269.3c0,1.115,1.976,1.115,1.986,0V264.69h1.771V269.3c-.01,3.248-5.538,3.248-5.528,0V264.69h1.771Z" transform="translate(-2236.424 -264.69)" fill="#fff"/><path d="M900.627,519.173c.695.841,2.221.88,2.27.137.019-.392-.616-.616-1.184-.695a2.152,2.152,0,1,1,.372-4.275,2.847,2.847,0,0,1,2.368,1.106l-1.145.88c-.724-.773-1.967-.743-2,.059.02.333.383.528.92.646,1.233.225,2.466.656,2.387,2.358-.059,1.34-1.466,2.074-2.741,2.074a3.036,3.036,0,0,1-2.358-1.252Z" transform="translate(-899.52 -506.384)" fill="#fff"/><path d="M1077.93,516.707c0-1.593,1.429-2.377,2.868-2.377s2.876.793,2.876,2.377v2.368c0,1.585-1.428,2.377-2.868,2.377s-2.877-.793-2.877-2.377Zm1.753,2.368c0,.51.567.753,1.125.753s1.115-.255,1.115-.753v-2.368c0-.538-.577-.783-1.144-.783-.548,0-1.1.274-1.1.783v2.368Z" transform="translate(-1072.245 -506.374)" fill="#fff"/><path d="M1289.071,520.3h2.671v1.634h-2.671v2.387H1287.3V517.39h4.823v1.663h-3.053V520.3Z" transform="translate(-1274.943 -509.337)" fill="#fff"/><path d="M1454.889,518.753v5.273h-1.769v-5.273h-1.84V517.09h5.45v1.663Z" transform="translate(-1433.697 -509.047)" fill="#fff"/><path d="M1633.672,517.39h1.81l-2,6.927h-1.625l-.616-1.917-.245-1.585h-.03l-.264,1.575-.547,1.927h-1.626l-2-6.927h1.82l.822,3.317.177,1.466h.049l.166-1.458.774-2.425h1.331l.714,2.436.225,1.448h.029l.2-1.448Z" transform="translate(-1603.362 -509.337)" fill="#fff"/><path d="M1892.659,524.327h-1.88l-.45-1.389h-1.848l-.431,1.389h-1.88l2.416-6.927h1.594Zm-2.749-2.945-.478-2.025h-.049l-.51,2.025Z" transform="translate(-1854.728 -509.347)" fill="#fff"/><path d="M2106.314,522.116H2106v2.2h-1.771V517.39H2107c1.428,0,2.534.656,2.573,2.28a2.086,2.086,0,0,1-1.36,2.27l1.888,2.377h-2.18Zm.713-1.507a.793.793,0,1,0,0-1.585H2106v1.585Z" transform="translate(-2065.839 -509.337)" fill="#fff"/><path d="M2304.321,520.11h2.808v1.516h-2.808v1.037h3.053v1.653h-4.824V517.39h4.824v1.645h-3.053Z" transform="translate(-2257.838 -509.337)" fill="#fff"/></g></g><g transform="translate(812.067 2182.215)"><path d="M33.141-21,27.091,0H20.282l-3.1-12.3a12.528,12.528,0,0,1-.349-2.687h-.123a16.076,16.076,0,0,1-.41,2.6L12.981,0H6.255L.328-21h6.6L9.823-7.3a17.812,17.812,0,0,1,.308,2.338h.123a12.947,12.947,0,0,1,.369-2.42L14.232-21h6.173l3.24,13.7a21.782,21.782,0,0,1,.287,2.379h.144A23.669,23.669,0,0,1,24.4-7.3L27.132-21ZM39.5-24.322a3.785,3.785,0,0,1-2.687-.974,3.138,3.138,0,0,1-1.046-2.389,3.027,3.027,0,0,1,1.046-2.379,3.91,3.91,0,0,1,2.687-.923,3.9,3.9,0,0,1,2.7.923,3.04,3.04,0,0,1,1.036,2.379,3.126,3.126,0,0,1-1.036,2.42A3.849,3.849,0,0,1,39.5-24.322ZM42.7,0h-6.48V-21H42.7ZM68.435,0h-6.46V-11.669q0-4.881-3.486-4.881a3.459,3.459,0,0,0-2.769,1.292,4.922,4.922,0,0,0-1.087,3.281V0h-6.48V-21h6.48v3.322h.082a7.426,7.426,0,0,1,6.747-3.835q6.973,0,6.973,8.654ZM94.151-2.4q0,5.845-3.384,9.054t-9.8,3.209a15.538,15.538,0,0,1-6.727-1.21V3.2A12.881,12.881,0,0,0,80.78,5.086a7.046,7.046,0,0,0,5.086-1.733,6.219,6.219,0,0,0,1.8-4.707V-3.015h-.082A7.237,7.237,0,0,1,81.047.513a7.869,7.869,0,0,1-6.378-2.83,11.477,11.477,0,0,1-2.358-7.588q0-5.332,2.625-8.47a8.57,8.57,0,0,1,6.911-3.138,6.377,6.377,0,0,1,5.742,2.953h.082V-21h6.48Zm-6.4-7.69v-1.661a5.1,5.1,0,0,0-1.179-3.394,3.814,3.814,0,0,0-3.066-1.4,3.964,3.964,0,0,0-3.384,1.682,7.908,7.908,0,0,0-1.23,4.737,6.674,6.674,0,0,0,1.169,4.153,3.809,3.809,0,0,0,3.2,1.528A3.966,3.966,0,0,0,86.512-6,6.348,6.348,0,0,0,87.753-10.09Zm30.68,1.436h-13.7q.328,4.573,5.763,4.573a11.251,11.251,0,0,0,6.091-1.641v4.676A16,16,0,0,1,109.02.513q-5.086,0-7.9-2.82t-2.81-7.865a11.238,11.238,0,0,1,3.035-8.285,10.112,10.112,0,0,1,7.465-3.056,9.178,9.178,0,0,1,7.106,2.728,10.5,10.5,0,0,1,2.512,7.4Zm-6.009-3.979q0-4.512-3.65-4.512a3.485,3.485,0,0,0-2.7,1.292,5.864,5.864,0,0,0-1.384,3.22ZM134.982-.246a9.579,9.579,0,0,1-4.327.759q-6.85,0-6.85-7.116v-9.618h-3.4V-21h3.4v-4.532l6.46-1.846V-21h4.717v4.778h-4.717v8.49q0,3.281,2.6,3.281a4.391,4.391,0,0,0,2.112-.595Zm6.542.759a3.78,3.78,0,0,1-2.666-.984,3.165,3.165,0,0,1-1.066-2.42,3.047,3.047,0,0,1,1.1-2.42,4.051,4.051,0,0,1,2.738-.943,3.9,3.9,0,0,1,2.717.954,3.107,3.107,0,0,1,1.056,2.41,3.125,3.125,0,0,1-1.077,2.451A4.065,4.065,0,0,1,141.524.513Zm22.189-15.668a5.621,5.621,0,0,0-2.728-.636,3.929,3.929,0,0,0-3.3,1.548,6.755,6.755,0,0,0-1.189,4.214V0h-6.48V-21h6.48v3.9h.082q1.538-4.266,5.537-4.266a4.173,4.173,0,0,1,1.6.246ZM186.806,0h-6.46V-3.2h-.1A7.329,7.329,0,0,1,173.824.513q-7.3,0-7.3-8.839V-21h6.46V-8.9q0,4.45,3.527,4.45A3.489,3.489,0,0,0,179.3-5.67a4.92,4.92,0,0,0,1.046-3.312V-21h6.46Zm25.737,0h-6.46V-11.669q0-4.881-3.486-4.881a3.459,3.459,0,0,0-2.769,1.292,4.922,4.922,0,0,0-1.087,3.281V0h-6.48V-21h6.48v3.322h.082a7.426,7.426,0,0,1,6.747-3.835q6.973,0,6.973,8.654Z" transform="translate(79.761 49.909)" fill="#fff"/><g transform="translate(-837.008 -73.179)"><line y2="33.465" transform="translate(865.691 107.221)" fill="none" stroke="#fff" stroke-linecap="round" stroke-linejoin="round" stroke-width="2"/><line x1="29.448" y2="17.116" transform="translate(865.691 90.105)" fill="none" stroke="#fff" stroke-linecap="round" stroke-linejoin="round" stroke-width="2"/><line x1="29.448" y2="16.605" transform="translate(865.691 124.081)" fill="none" stroke="#fff" stroke-linecap="round" stroke-linejoin="round" stroke-width="2"/><line y2="33.976" transform="translate(895.139 90.105)" fill="none" stroke="#fff" stroke-linecap="round" stroke-linejoin="round" stroke-width="2"/><line x1="29.448" y1="16.605" transform="translate(865.691 73.5)" fill="none" stroke="#fff" stroke-linecap="round" stroke-linejoin="round" stroke-width="2"/><line y1="16.605" x2="29.192" transform="translate(836.5 73.5)" fill="none" stroke="#fff" stroke-linecap="round" stroke-linejoin="round" stroke-width="2"/><line x2="29.192" y2="17.116" transform="translate(836.5 90.105)" fill="none" stroke="#fff" stroke-linecap="round" stroke-linejoin="round" stroke-width="2"/><line y1="33.976" transform="translate(836.5 90.105)" fill="none" stroke="#fff" stroke-linecap="round" stroke-linejoin="round" stroke-width="2"/><line x1="29.192" y1="16.605" transform="translate(836.5 124.081)" fill="none" stroke="#fff" stroke-linecap="round" stroke-linejoin="round" stroke-width="2"/><line y1="7.919" x2="13.572" transform="translate(836.5 116.162)" fill="none" stroke="#fff" stroke-linecap="round" stroke-linejoin="round" stroke-width="2"/><line y2="18.138" transform="translate(850.071 98.024)" fill="none" stroke="#fff" stroke-linecap="round" stroke-linejoin="round" stroke-width="2"/><line x2="15.62" y2="8.941" transform="translate(850.071 116.162)" fill="none" stroke="#fff" stroke-linecap="round" stroke-linejoin="round" stroke-width="2"/><line y1="8.941" x2="15.876" transform="translate(865.691 116.162)" fill="none" stroke="#fff" stroke-linecap="round" stroke-linejoin="round" stroke-width="2"/><line y2="18.138" transform="translate(881.568 98.024)" fill="none" stroke="#fff" stroke-linecap="round" stroke-linejoin="round" stroke-width="2"/><line x2="15.876" y2="9.452" transform="translate(865.691 88.572)" fill="none" stroke="#fff" stroke-linecap="round" stroke-linejoin="round" stroke-width="2"/><line x1="15.62" y2="9.452" transform="translate(850.071 88.572)" fill="none" stroke="#fff" stroke-linecap="round" stroke-linejoin="round" stroke-width="2"/><line y2="15.072" transform="translate(865.691 73.5)" fill="none" stroke="#fff" stroke-linecap="round" stroke-linejoin="round" stroke-width="2"/><line x2="13.572" y2="7.919" transform="translate(881.568 116.162)" fill="none" stroke="#fff" stroke-linecap="round" stroke-linejoin="round" stroke-width="2"/></g></g></g></svg>