
<svg xmlns="http://www.w3.org/2000/svg" width="306.723" height="328.827" viewBox="0 0 306.723 328.827"><g transform="translate(-806.004 -50.314)"><path d="M218.5-927.558l153.511-76.132,153.212,76.132v177.394l-153.367,75.3L218.5-750.164Z" transform="translate(587.504 1054.005)" fill="#327080"/><g opacity="0.1"><line y2="140.962" transform="translate(959.461 215.538)" stroke-width="6" stroke="#fff" stroke-linecap="round" stroke-linejoin="round" fill="none"/><line x1="124.04" y2="72.095" transform="translate(959.461 143.443)" stroke-width="6" stroke="#fff" stroke-linecap="round" stroke-linejoin="round" fill="none"/><line x1="124.04" y2="69.943" transform="translate(959.461 286.557)" stroke-width="6" stroke="#fff" stroke-linecap="round" stroke-linejoin="round" fill="none"/><line y2="143.114" transform="translate(1083.5 143.443)" stroke-width="6" stroke="#fff" stroke-linecap="round" stroke-linejoin="round" fill="none"/><line x1="124.04" y1="69.943" transform="translate(959.461 73.5)" stroke-width="6" stroke="#fff" stroke-linecap="round" stroke-linejoin="round" fill="none"/><line y1="69.943" x2="122.961" transform="translate(836.5 73.5)" stroke-width="6" stroke="#fff" stroke-linecap="round" stroke-linejoin="round" fill="none"/><line x2="122.961" y2="72.095" transform="translate(836.5 143.443)" stroke-width="6" stroke="#fff" stroke-linecap="round" stroke-linejoin="round" fill="none"/><line y1="143.114" transform="translate(836.5 143.443)" stroke-width="6" stroke="#fff" stroke-linecap="round" stroke-linejoin="round" fill="none"/><line x1="122.961" y1="69.943" transform="translate(836.5 286.557)" stroke-width="6" stroke="#fff" stroke-linecap="round" stroke-linejoin="round" fill="none"/><line y1="33.357" x2="57.166" transform="translate(836.5 253.2)" stroke-width="6" stroke="#fff" stroke-linecap="round" stroke-linejoin="round" fill="none"/><line y2="76.399" transform="translate(893.666 176.801)" stroke-width="6" stroke="#fff" stroke-linecap="round" stroke-linejoin="round" fill="none"/><line x2="65.795" y2="37.662" transform="translate(893.666 253.2)" stroke-width="6" stroke="#fff" stroke-linecap="round" stroke-linejoin="round" fill="none"/><line y1="37.662" x2="66.874" transform="translate(959.461 253.2)" stroke-width="6" stroke="#fff" stroke-linecap="round" stroke-linejoin="round" fill="none"/><line y2="76.399" transform="translate(1026.334 176.801)" stroke-width="6" stroke="#fff" stroke-linecap="round" stroke-linejoin="round" fill="none"/><line x2="66.874" y2="39.814" transform="translate(959.461 136.987)" stroke-width="6" stroke="#fff" stroke-linecap="round" stroke-linejoin="round" fill="none"/><line x1="65.795" y2="39.814" transform="translate(893.666 136.987)" stroke-width="6" stroke="#fff" stroke-linecap="round" stroke-linejoin="round" fill="none"/><line y2="63.487" transform="translate(959.461 73.5)" stroke-width="6" stroke="#fff" stroke-linecap="round" stroke-linejoin="round" fill="none"/><line x2="57.166" y2="33.357" transform="translate(1026.334 253.2)" stroke-width="6" stroke="#fff" stroke-linecap="round" stroke-linejoin="round" fill="none"/></g></g></svg>