<svg xmlns="http://www.w3.org/2000/svg" width="448.44" height="512.842" viewBox="0 0 448.44 512.842"><g transform="translate(-811.801 -40.577)"><path d="M8020.945,2701.532,7796.43,2828.781v257.281l224.516,128.313,223.925-128.313V2828.781Z" transform="translate(-6984.629 -2660.956)" fill="#1f1f1f"/><g transform="translate(851.613 84.99)" opacity="0.1"><line y2="210.821" transform="translate(183.899 212.431)" stroke-width="6" stroke="#fff" stroke-linecap="round" stroke-linejoin="round" fill="none"/><line x1="185.512" y2="107.825" transform="translate(183.899 104.606)" stroke-width="6" stroke="#fff" stroke-linecap="round" stroke-linejoin="round" fill="none"/><line x1="185.512" y2="104.606" transform="translate(183.899 318.646)" stroke-width="6" stroke="#fff" stroke-linecap="round" stroke-linejoin="round" fill="none"/><line y2="214.04" transform="translate(369.411 104.606)" stroke-width="6" stroke="#fff" stroke-linecap="round" stroke-linejoin="round" fill="none"/><line x1="185.512" y1="104.606" transform="translate(183.899)" stroke-width="6" stroke="#fff" stroke-linecap="round" stroke-linejoin="round" fill="none"/><line y1="104.606" x2="183.899" fill="none" stroke="#fff" stroke-linecap="round" stroke-linejoin="round" stroke-width="6"/><line x2="183.899" y2="107.825" transform="translate(0 104.606)" stroke-width="6" stroke="#fff" stroke-linecap="round" stroke-linejoin="round" fill="none"/><line y1="214.04" transform="translate(0 104.606)" stroke-width="6" stroke="#fff" stroke-linecap="round" stroke-linejoin="round" fill="none"/><line x1="183.899" y1="104.606" transform="translate(0 318.646)" stroke-width="6" stroke="#fff" stroke-linecap="round" stroke-linejoin="round" fill="none"/><line y1="49.889" x2="85.497" transform="translate(0 268.757)" stroke-width="6" stroke="#fff" stroke-linecap="round" stroke-linejoin="round" fill="none"/><line y2="114.262" transform="translate(85.497 154.495)" stroke-width="6" stroke="#fff" stroke-linecap="round" stroke-linejoin="round" fill="none"/><line x2="98.402" y2="56.326" transform="translate(85.497 268.757)" stroke-width="6" stroke="#fff" stroke-linecap="round" stroke-linejoin="round" fill="none"/><line y1="56.326" x2="100.015" transform="translate(183.899 268.757)" stroke-width="6" stroke="#fff" stroke-linecap="round" stroke-linejoin="round" fill="none"/><line y2="114.262" transform="translate(283.914 154.495)" stroke-width="6" stroke="#fff" stroke-linecap="round" stroke-linejoin="round" fill="none"/><line x2="100.015" y2="59.545" transform="translate(183.899 94.95)" stroke-width="6" stroke="#fff" stroke-linecap="round" stroke-linejoin="round" fill="none"/><line x1="98.402" y2="59.545" transform="translate(85.497 94.95)" stroke-width="6" stroke="#fff" stroke-linecap="round" stroke-linejoin="round" fill="none"/><line y2="94.95" transform="translate(183.899)" stroke-width="6" stroke="#fff" stroke-linecap="round" stroke-linejoin="round" fill="none"/><line x2="85.497" y2="49.889" transform="translate(283.914 268.757)" stroke-width="6" stroke="#fff" stroke-linecap="round" stroke-linejoin="round" fill="none"/></g></g></svg>